<svg xmlns:dc="http://purl.org/dc/elements/1.1/" xmlns:cc="http://creativecommons.org/ns#" xmlns:rdf="http://www.w3.org/1999/02/22-rdf-syntax-ns#" xmlns:svg="http://www.w3.org/2000/svg" xmlns="http://www.w3.org/2000/svg" xmlns:sodipodi="http://sodipodi.sourceforge.net/DTD/sodipodi-0.dtd" xmlns:inkscape="http://www.inkscape.org/namespaces/inkscape" viewBox="0 0 32 32" version="1.1" x="0px" y="0px"><g transform="translate(0,-1020.3622)"><path  d="m 9.3915676,1027.1593 a 0.49880063,0.50004205 0 0 0 -0.3526324,0.1269 c 0,0 -2.2780366,1.9563 -3.2944827,3.2304 -1.1273487,1.4132 -2.2259357,2.9533 -2.8872994,4.709 -0.6162492,1.6357 -0.8155068,3.3901 -0.8747621,5.0819 -0.067273,1.9319 0.1432251,3.8796 0.5747324,5.7558 0.2072601,0.9019 0.3605681,2.0097 1.0851726,2.8808 a 0.49880063,0.50004205 0 0 0 0.00195,0 c 0.9598941,1.1535 2.3834336,1.7301 3.6549081,2.1894 1.6356809,0.5909 3.3586309,0.6537 4.9699739,0.8027 1.78105,0.1645 3.652918,0.427 5.531068,0.1367 1.152483,-0.178 2.682128,-0.7155 3.956887,-1.207 1.138471,-0.439 1.853201,-0.758 2.037863,-0.8399 0.256706,0.183 1.523333,1.0994 2.515186,1.5196 1.067787,0.452 3.0529,0.8047 3.0529,0.8047 a 0.49880063,0.50004205 0 1 0 0.183134,-0.9825 c 0,0 -2.043745,-0.4016 -2.848334,-0.7421 -0.826071,-0.35 -2.57558,-1.5664 -2.57558,-1.5664 a 0.49880063,0.50004205 0 0 0 -0.490958,-0.047 c 0,0 -0.984233,0.4385 -2.232689,0.9198 -1.248457,0.4813 -2.773247,1.0014 -3.750372,1.1523 -1.686615,0.2607 -3.476903,0.023 -5.287537,-0.1445 -1.646765,-0.1522 -3.2804822,-0.2251 -4.7225472,-0.7461 -1.2366121,-0.4467 -2.4813438,-0.9929 -3.2282424,-1.8905 -0.4888349,-0.5877 -0.6626014,-1.5162 -0.8806069,-2.4649 -0.413444,-1.7976 -0.613331,-3.6602 -0.5494051,-5.4959 0.057315,-1.6365 0.2528658,-3.2855 0.81047,-4.7656 0.5999557,-1.5927 1.6301288,-3.0525 2.733388,-4.4355 0.8642983,-1.0834 3.1678468,-3.0995 3.1678468,-3.0995 a 0.49880063,0.50004205 0 0 0 -0.3000298,-0.8828 z"></path><path  d="m 11.088489,1030.1846 a 0.49880063,0.50004205 0 0 0 -0.335098,0.166 l -1.5449584,1.6875 a 0.49880063,0.50004205 0 0 0 -0.062344,0.5937 c 0,0 0.6606879,1.1493 0.8396933,1.6406 0.1804361,0.4947 0.2863201,1.0362 0.3662711,1.5938 0.117897,0.8239 0.150015,2.6854 0.150015,2.6854 a 0.49880063,0.50004205 0 1 0 0.997502,-0.014 c 0,0 -0.01752,-1.8203 -0.159757,-2.8144 -0.08465,-0.5904 -0.199994,-1.2002 -0.416925,-1.7949 -0.21333,-0.5856 -0.576908,-1.18 -0.746177,-1.4688 l 1.311169,-1.4336 a 0.49880063,0.50004205 0 0 0 -0.399391,-0.8417 z"></path><path  d="m 18.634043,1036.1006 c -1.544096,-0.2101 -3.080049,0.1821 -4.46343,0.6288 -0.929878,0.3004 -2.117495,0.9308 -3.103554,1.4902 -0.986059,0.5594 -1.7592659,1.0488 -1.7592659,1.0488 a 0.49915544,0.50039775 0 0 0 0.5338192,0.8457 c 0,0 0.7536317,-0.4772 1.7164037,-1.0234 0.962773,-0.5462 2.148796,-1.1595 2.918471,-1.4082 1.336435,-0.4316 2.735212,-0.765 4.023128,-0.5898 1.061952,0.1445 2.093727,0.8179 3.200966,1.4199 0.935755,0.5086 2.826904,1.8652 2.826904,1.8652 a 0.49880063,0.50004205 0 0 0 0.660455,-0.07 c 0,0 1.308909,-1.4257 1.959935,-1.8984 0.616232,-0.4474 2.296981,-1.2149 2.296981,-1.2149 a 0.49880063,0.50004205 0 1 0 -0.403287,-0.914 c 0,0 -1.635905,0.7069 -2.478168,1.3183 -0.747834,0.543 -1.522572,1.4259 -1.804075,1.7383 -0.356075,-0.2562 -1.628337,-1.184 -2.583374,-1.7031 -1.048947,-0.5703 -2.172685,-1.3467 -3.541909,-1.5331 z"></path><path  d="m 15.41749,1020.3644 c -0.587657,-0.016 -1.189823,0.057 -1.761213,0.2403 a 0.49880078,0.5000422 0 0 0 -0.002,0 c -0.80995,0.2591 -1.627675,0.6386 -2.310619,1.2187 -0.747819,0.6356 -1.4384866,1.4416 -1.8099203,2.414 a 0.49880078,0.5000422 0 0 0 -0.00195,0 c -0.4473498,1.1761 -0.5233075,2.4906 -0.3136675,3.7071 0.1528831,0.8785 0.5786212,1.6701 1.0676388,2.3456 0.418143,0.5783 0.943398,1.1825 1.671594,1.5352 a 0.49880078,0.5000422 0 0 0 0.002,0 c 1.233435,0.594 2.669818,0.7908 4.011436,0.6269 1.172344,-0.1433 2.240138,-0.6943 3.156158,-1.3164 0.702209,-0.4771 1.436158,-1.0791 1.868368,-1.9237 l 0,0 c 0.452082,-0.8809 0.490851,-1.8622 0.490957,-2.7265 0.01377,-0.7296 -0.01474,-1.536 -0.325357,-2.2969 -0.373076,-0.9099 -0.997711,-1.7144 -1.737834,-2.3339 -0.706334,-0.5909 -1.552276,-0.9128 -2.335947,-1.1777 -0.527239,-0.1782 -1.090469,-0.2977 -1.667698,-0.3145 a 0.49880078,0.5000422 0 0 0 -0.002,0 z m -1.761213,0.2403 0.07598,-0.018 a 0.49880078,0.5000422 0 0 0 -0.07598,0.018 z m 1.733938,0.7578 c 0.455774,0.013 0.925031,0.1128 1.37741,0.2656 0.752638,0.2545 1.478715,0.5482 2.016433,0.9981 0.624269,0.5225 1.151471,1.2088 1.453391,1.9452 0.22262,0.5465 0.264432,1.2188 0.251323,1.9023 a 0.49880078,0.5000422 0 0 0 0,0.01 c 0,0.827 -0.05912,1.6492 -0.379907,2.2734 a 0.49880078,0.5000422 0 0 0 -0.002,0 c -0.306817,0.6001 -0.898709,1.1195 -1.539114,1.5546 -0.84099,0.5711 -1.782139,1.0359 -2.717802,1.1503 -1.159154,0.1416 -2.423336,-0.037 -3.458135,-0.5351 -0.487429,-0.2361 -0.925907,-0.7039 -1.299481,-1.2206 -0.430908,-0.5951 -0.776326,-1.2653 -0.892296,-1.9317 -0.181584,-1.0536 -0.105962,-2.2033 0.264962,-3.1796 l 0,0 c 0.287756,-0.7523 0.864756,-1.4478 1.523528,-2.0077 0.544551,-0.4626 1.244171,-0.7956 1.967727,-1.0274 8.57e-4,-2e-4 0.0011,0 0.002,0 a 0.49880078,0.5000422 0 0 0 0.002,0 c 0.450905,-0.1444 0.944478,-0.2083 1.430013,-0.1953 z"></path><path  d="m 15.35125,1023.4972 c -0.286003,-0.01 -0.577228,0.029 -0.857228,0.1172 a 0.49880078,0.5000422 0 0 0 -0.002,0 l -0.0039,0 a 0.49880078,0.5000422 0 0 0 -0.146118,0.076 c -0.330024,0.1189 -0.667162,0.2608 -0.960485,0.5096 -0.353459,0.2995 -0.687896,0.6826 -0.874762,1.1699 -0.219051,0.5719 -0.253889,1.1952 -0.153912,1.7735 0.07779,0.445 0.287018,0.8259 0.518234,1.1446 0.195842,0.2699 0.451664,0.5726 0.839693,0.7597 0.597078,0.2865 1.276697,0.377 1.917073,0.2989 l 0,0 c 0.580817,-0.071 1.084367,-0.3361 1.507942,-0.623 a 0.49880078,0.5000422 0 0 0 0.002,0 c 0.325792,-0.221 0.686471,-0.5086 0.91178,-0.9473 0.233908,-0.4569 0.247357,-0.9301 0.247427,-1.3203 0.006,-0.3325 -0.0048,-0.722 -0.165601,-1.1152 -0.183899,-0.4476 -0.48601,-0.8324 -0.84359,-1.1309 -0.357613,-0.2981 -0.762013,-0.4453 -1.114397,-0.5643 -0.243347,-0.083 -0.518906,-0.1513 -0.822159,-0.1524 z m -0.02144,0.998 a 0.49880078,0.5000422 0 0 0 0.01559,0 c 0.148045,0 0.323826,0.039 0.508492,0.1016 0.321708,0.1086 0.608085,0.2293 0.796832,0.3867 0.241865,0.2019 0.444766,0.4705 0.557199,0.7441 0.07271,0.1789 0.09678,0.4351 0.09157,0.7207 a 0.49880078,0.5000422 0 0 0 0,0.01 c 0,0.35 -0.03511,0.6656 -0.138325,0.8672 -0.10015,0.1935 -0.31971,0.3979 -0.582526,0.5761 -0.348387,0.2361 -0.726569,0.415 -1.071534,0.4571 -0.458001,0.056 -0.964719,-0.018 -1.363772,-0.209 l 0,0 c -0.14657,-0.071 -0.313796,-0.2379 -0.465631,-0.4472 -0.172557,-0.2378 -0.302076,-0.4971 -0.342891,-0.7285 l 0,0 c -0.0715,-0.4156 -0.03864,-0.8718 0.103257,-1.2422 0.102677,-0.2678 0.323913,-0.5415 0.58837,-0.7656 0.199775,-0.1695 0.473429,-0.3042 0.767609,-0.3984 5.92e-4,-2e-4 0.0014,10e-5 0.002,0 a 0.49880078,0.5000422 0 0 0 0.002,0 c 0.165169,-0.052 0.350087,-0.078 0.531871,-0.072 z"></path><path  d="m 14.205682,1025.5694 a 0.2494003,0.25002101 0 0 0 -0.16755,0.082 l -1.229342,1.3184 a 0.24948868,0.25010961 0 1 0 0.364322,0.3418 l 1.229343,-1.3184 a 0.2494003,0.25002101 0 0 0 -0.196773,-0.4238 z"></path><path  d="m 14.575848,1026.4815 a 0.2494003,0.25002101 0 0 0 -0.169497,0.084 l -1.106603,1.2129 a 0.24959729,0.25021849 0 1 0 0.368218,0.3379 l 1.106604,-1.2129 a 0.2494003,0.25002101 0 0 0 -0.198722,-0.4219 z"></path><path  d="m 15.074599,1027.0909 a 0.2494003,0.25002101 0 0 0 -0.187031,0.094 l -0.703317,0.8633 a 0.24996228,0.2505844 0 0 0 0.387701,0.3164 l 0.701368,-0.8632 a 0.2494003,0.25002101 0 0 0 -0.198721,-0.4102 z"></path><path  d="m 15.807139,1027.5011 a 0.2494003,0.25002101 0 0 0 -0.187031,0.094 l -0.703317,0.8633 a 0.24996228,0.2505844 0 1 0 0.387701,0.3164 l 0.701369,-0.8633 a 0.2494003,0.25002101 0 0 0 -0.198722,-0.4101 z"></path><path  d="m 5.7931587,1043.6785 a 0.49880063,0.50004205 0 0 0 -0.4500447,0.6289 c 0,0 0.095806,0.377 0.2396342,0.834 0.1438277,0.4569 0.3251923,0.9868 0.5610947,1.3867 0.3273817,0.5545 0.765135,1.0397 1.2624629,1.4316 0.3204005,0.2525 0.7517623,0.4717 1.1241375,0.6524 0.3723751,0.1807 0.6799375,0.3105 0.6799375,0.3105 a 0.49880063,0.50004205 0 1 0 0.3857526,-0.9218 c 0,0 -0.284331,-0.1208 -0.6312314,-0.2891 -0.3469004,-0.1683 -0.7627594,-0.3971 -0.9429507,-0.5391 -0.4059091,-0.3199 -0.7631453,-0.7177 -1.0208805,-1.1543 -0.1396735,-0.2367 -0.3308302,-0.7494 -0.4656307,-1.1777 -0.1348004,-0.4283 -0.2240482,-0.7793 -0.2240482,-0.7793 a 0.49880063,0.50004205 0 0 0 -0.5182332,-0.3828 z"></path><path  d="m 19.197086,1036.6962 a 0.2494003,0.25002101 0 0 0 -0.173394,0.074 l -2.984711,2.918 a 0.2494003,0.25002101 0 1 0 0.348735,0.3574 l 2.984712,-2.918 a 0.2494003,0.25002101 0 0 0 -0.175342,-0.4316 z"></path><path  d="m 20.198484,1037.3641 a 0.2494003,0.25002101 0 0 0 -0.167549,0.086 l -2.070985,2.3203 a 0.2494003,0.25002101 0 1 0 0.370167,0.334 l 2.072933,-2.3203 a 0.2494003,0.25002101 0 0 0 -0.204566,-0.42 z"></path><path  d="m 21.160917,1037.786 a 0.2494003,0.25002101 0 0 0 -0.18898,0.094 l -1.404685,1.7246 a 0.2494003,0.25002101 0 1 0 0.385753,0.3164 l 1.404685,-1.7246 a 0.2494003,0.25002101 0 0 0 -0.196773,-0.4102 z"></path><path  d="m 22.166212,1038.3134 a 0.2494003,0.25002101 0 0 0 -0.183135,0.1035 l -1.08907,1.4785 a 0.2494003,0.25002101 0 1 0 0.401339,0.2969 l 1.089069,-1.4766 a 0.2494003,0.25002101 0 0 0 -0.218203,-0.4023 z"></path></g></svg>